<svg width="57" height="57" viewBox="0 0 57 57" fill="none" xmlns="http://www.w3.org/2000/svg">
<g clip-path="url(#clip0_22_8)">
<path fill-rule="evenodd" clip-rule="evenodd" d="M30.7825 16.8823C30.7825 17.8263 30.081 18.6222 29.1236 18.867C33.9841 19.1571 37.8271 22.8135 37.8271 27.2815V33.7469C37.8271 35.258 37.8953 36.4782 39.327 37.1254C39.7568 37.3198 39.9825 37.7559 39.8721 38.1788C39.7616 38.6018 39.3442 38.9005 38.8635 38.9005H29.8709C30.3012 39.2438 30.5726 39.7463 30.5726 40.306C30.5726 41.3411 29.6446 42.1801 28.4999 42.1801C27.3552 42.1801 26.4272 41.3411 26.4272 40.306C26.4272 39.7463 26.6986 39.2438 27.1289 38.9005H18.1364C17.6557 38.9005 17.2382 38.6018 17.1277 38.1788C17.0173 37.7559 17.243 37.3198 17.6729 37.1254C19.1045 36.4782 19.1727 35.258 19.1727 33.7469V27.2815C19.1727 22.8127 23.0172 19.1557 27.879 18.8668C26.9219 18.6218 26.2207 17.8261 26.2207 16.8823C26.2207 15.7434 27.2419 14.8201 28.5016 14.8201C29.7613 14.8201 30.7825 15.7434 30.7825 16.8823ZM28.4999 20.7224C24.4934 20.7224 21.2454 23.659 21.2454 27.2815V33.7469L21.2455 33.8423C21.2465 34.677 21.248 35.9178 20.6222 37.0265H36.3777C35.7519 35.9178 35.7534 34.677 35.7544 33.8423V33.7469V27.2815C35.7544 23.659 32.5065 20.7224 28.4999 20.7224Z" fill="#747474"/>
<circle cx="35.3399" cy="23.9401" r="4.56" fill="#EC342F"/>
</g>
<rect x="0.5" y="0.5" width="56" height="56" rx="16.5" stroke="#929292"/>
<defs>
<clipPath id="clip0_22_8">
<rect width="27.36" height="27.36" fill="white" transform="translate(14.8199 14.8201)"/>
</clipPath>
</defs>
</svg>
