<svg width="23" height="23" viewBox="0 0 23 23" fill="none" xmlns="http://www.w3.org/2000/svg">
<path d="M1 8.48539C1 8.05443 1.21935 7.65012 1.58867 7.40037L10.6887 1.24637C11.1744 0.917877 11.8256 0.917878 12.3113 1.24637L21.4113 7.40037C21.7806 7.65012 22 8.05443 22 8.48539V20.0029C22 21.1059 21.0598 22 19.9 22H3.1C1.9402 22 1 21.1059 1 20.0029V8.48539Z" fill="#EC403B"/>
<path d="M8 22V14.0116C8 13.2763 8.6268 12.6802 9.4 12.6802H13.6C14.3732 12.6802 15 13.2763 15 14.0116V22M10.6887 1.24637L1.58867 7.40037C1.21935 7.65012 1 8.05443 1 8.48539V20.0029C1 21.1059 1.9402 22 3.1 22H19.9C21.0598 22 22 21.1059 22 20.0029V8.48539C22 8.05443 21.7806 7.65012 21.4113 7.40037L12.3113 1.24637C11.8256 0.917878 11.1744 0.917877 10.6887 1.24637Z" stroke="#F0F0F0" stroke-linecap="round"/>
</svg>
