<svg width="15" height="20" viewBox="0 0 15 20" fill="none" xmlns="http://www.w3.org/2000/svg">
<g clip-path="url(#clip0_89_967)">
<path d="M1.68611 9.48599L8.25808 9.48599C8.5485 9.48599 8.78389 9.71613 8.78389 9.99982C8.78389 10.2837 8.5485 10.5138 8.25808 10.5138L1.68645 10.5138L3.82399 12.882C4.0158 13.0937 3.99544 13.4173 3.77873 13.6045C3.56201 13.7918 3.23071 13.7721 3.03907 13.5604L0.13141 10.339C-0.0471126 10.1419 -0.0417281 9.84764 0.134774 9.65705L3.03924 6.43928C3.23105 6.22736 3.56218 6.20767 3.7789 6.39517C3.99545 6.58251 4.01581 6.90607 3.82416 7.11782L1.68611 9.48599ZM7.86655 1.01008C7.58236 0.943509 7.40771 0.666654 7.47653 0.391752C7.54535 0.116849 7.83138 -0.0522582 8.11574 0.0144724C8.75529 0.164539 9.39147 0.286447 9.97532 0.398263C13.2457 1.02489 15 1.36083 15 5.86083L15 14.4355C15 18.7044 13.1357 19.0415 10.048 19.5996C9.44699 19.7082 8.79483 19.826 8.11574 19.9855C7.83155 20.0521 7.54534 19.8831 7.47653 19.6081C7.40788 19.3332 7.58236 19.0563 7.86655 18.9897C8.58854 18.8203 9.24643 18.7015 9.85283 18.5918C12.3997 18.1315 13.9375 17.8535 13.9375 14.4355L13.9375 5.86083C13.9375 2.20409 12.4832 1.92544 9.77207 1.40608C9.20302 1.29703 8.58299 1.17805 7.86655 1.01008Z" fill="white"/>
</g>
<defs>
<clipPath id="clip0_89_967">
<rect width="15" height="20" fill="white" transform="translate(15 20) rotate(-180)"/>
</clipPath>
</defs>
</svg>
