<svg width="19" height="27" viewBox="0 0 19 27" fill="none" xmlns="http://www.w3.org/2000/svg">
<path fill-rule="evenodd" clip-rule="evenodd" d="M17.0988 13.7076H1.89513V3.60692H17.0988V13.7076ZM13.8935 6.0591H15.5997V7.86906H14.1982L12.5103 9.56872V10.8467H10.6944V9.56872C10.2008 9.14705 9.5975 8.51129 9.09782 8.08313H7.69628C6.89801 8.82916 5.49647 9.9904 4.6068 10.7364V12.0144H2.80917V10.2045H4.40571L7.61097 7.64849V6.26021H9.31719V7.64849C9.81078 7.95988 10.414 8.49832 10.8162 8.91999H12.3153C12.8089 8.49832 13.5096 7.86258 13.9057 7.42793V6.05263L13.8935 6.0591ZM18.0067 1.69966H10.408C10.5055 1.47909 10.5969 1.37531 10.5969 1.16772C10.5969 0.531968 10.1033 0 9.5 0C8.89673 0 8.40314 0.531968 8.40314 1.16772C8.40314 1.3818 8.40314 1.47909 8.50064 1.69966H1.00545C0.402181 1.69966 0 2.11485 0 2.75709V14.6677C0 15.3035 0.396087 15.7251 1.00545 15.7251H7.11129L6.01443 26.1502C5.80725 26.4616 6.01443 26.7859 6.30083 26.7859L6.8127 27C7.11738 27 7.40378 26.7859 7.51347 26.4681L8.80532 15.7316H10.2069L11.4195 26.4681C11.6084 26.7924 11.9131 27 12.2178 27L12.6139 26.7859C12.9003 26.7859 13.1074 26.4616 13.0099 26.1502L11.7973 15.7251H18.0128C18.5064 15.7251 19 15.3035 19 14.6677V2.75709C19 2.11485 18.6039 1.69966 18.0128 1.69966H18.0067Z" fill="#EC342F"/>
</svg>
