<svg width="21" height="23" viewBox="0 0 21 23" fill="none" xmlns="http://www.w3.org/2000/svg">
<path fill-rule="evenodd" clip-rule="evenodd" d="M3.35016 2.98894V3.98342H15.7339V2.98894H3.35016ZM3.35016 5.33701V6.24862H15.7339V5.33701H3.35016ZM3.35016 7.60773V8.50829H15.7339V7.60773H3.35016ZM3.35016 9.8674V10.8619H13.802V9.8674H3.35016ZM3.35016 12.1326V13.1271H10.2913V12.1326H3.35016ZM11.1583 19.3812V20.3702H16.8685V19.3812H11.1583ZM19.7745 11.4972L14.8563 16.5691L16.1728 17.8398L21 12.768L19.7745 11.4972ZM14.1552 18.5635L15.1185 18.2873L16.0015 17.9282L15.3807 17.2928L14.7706 16.663L14.5031 17.5635L14.1552 18.558V18.5635ZM0.535168 0H19.0627V11.9558L18.0138 12.9448V0.994469H1.05963V21.9171H18.0138V16.116L19.0627 15.1271V23H0V0H0.529819H0.535168Z" fill="white"/>
</svg>
